#N canvas 2332 143 753 588 12;
#X msg 13 12 listen 8000, f 13;
#X obj 13 43 netreceive -u -b;
#X obj 13 74 oscparse;
#X obj 13 105 list trim;
#X obj 13 136 route emg;
#X obj 13 167 route dominant_power dominant_freq;
#X obj 197 315 osc~;
#X obj 156 520 dac~;
#X obj 331 187 print;
#X obj 249 298 hsl 170 20 0 127 0 0 empty empty empty -2 -10 0 12 #fcfcfc #000000 #000000 0 1;
#X obj 312 218 hsl 170 20 0 127 0 0 empty empty empty -2 -10 0 12 #fcfcfc #000000 #000000 0 1;
#X obj 131 360 lop~;
#X obj 255 363 mtof;
#X obj 246 267 mtof;
#X obj 15 236 * 100;
#X obj 155 235 * 10;
#X obj 125 -2;
#X obj 38 387 metro 100;
#X obj 1 439 tabwrite~ status;
#X obj 502 406 cnv 20 133 80 empty status status 20 12 0 12 #e0e0e0 #404040 0;
#X connect 0 0 1 0;
#X connect 1 0 2 0;
#X connect 2 0 3 0;
#X connect 3 0 4 0;
#X connect 4 0 5 0;
#X connect 5 0 8 0;
#X connect 5 0 14 0;
#X connect 5 1 8 0;
#X connect 5 1 15 0;
#X connect 6 0 11 0;
#X connect 6 0 7 1;
#X connect 9 0 12 0;
#X connect 10 0 13 0;
#X connect 11 0 7 0;
#X connect 13 0 6 0;
#X connect 14 0 8 0;
#X connect 14 0 11 1;
#X connect 14 0 18 0;
#X connect 15 0 8 0;
#X coords 0 0 1 1 85 60 0;
